<svg width="176" height="177" viewBox="0 0 176 177" fill="none" xmlns="http://www.w3.org/2000/svg">
<path d="M67 33.5L86.5 0L107 31C115 33.5 118 38 118 38L140.5 31L134 53C140.5 59 140.24 58.5957 143 67L175.5 86.5L144.5 105.5C141.5 111.5 135.5 118.5 135.5 118.5L143 142.5L120 135.5C113.5 141 105.5 144.5 105.5 144.5L87 175.5L69.5 144.5C61 141 54.5 135.5 54.5 135.5L31.5 141L38.5 118.5C33.5 113 31.5 105.5 31.5 105.5L0 86.5L33.5 67C36.5 58.5 35.5857 60.2066 41 53L35 31L56.5 38C62.5 33.5 59.6034 34.7414 67 33.5Z" fill="#968D32"/>
<path d="M56.5 38C62.5 33.5 59.6034 34.7414 67 33.5L86.5 0.5V29.5C95.9296 28.4322 100.493 28.6735 107 31C115 33.5 118 38 118 38L140.5 31L124 48.5L134 53C140.5 59 140.24 58.5957 143 67L175.5 86.5L146 88L144.5 105.5C141.5 111.5 135.5 118.5 135.5 118.5C134.163 119.669 130.785 121.14 124 124L143 143L120 135.5C113.5 141 105.5 144.5 105.5 144.5C100.342 147.003 96.2202 147.789 85.5 147.5L87 176.5L69.5 144.5C61 141 54.5 135.5 54.5 135.5L52 124L31.5 141L38.5 118.5C33.5 113 31.5 105.5 31.5 105.5C30.323 96.6457 29.8984 92.5343 29.5 86.5H0L33.5 67C36.5 58.5 35.5857 60.2066 41 53L35 31L54.5 53L56.5 38Z" fill="#E3D868"/>
<path d="M104.653 94.7424C96.3703 106.454 87.1241 111.508 62.1531 117.742C65.987 122.145 69.2864 123.647 77.6531 124.242C92.3864 124.268 99.6513 122.841 110.153 116.742C119.39 108.614 122.642 102.522 124.153 88.2424C124.106 72.7277 119.829 66.5495 110.153 56.7424C101.591 51.9243 96.1261 50.337 84.1531 51.2424C73.1696 53.9976 68.1434 58.2711 60.1531 68.2424C58.6185 74.0552 58.6127 77.7677 60.1531 85.2424C63.9808 93.2853 67.3088 97.2997 76.1531 103.242C87.1534 103.679 92.0045 102.273 96.6531 94.7424C97.2041 88.7889 96.7118 85.4911 93.1531 79.7424C88.255 76.4535 85.72 76.3152 81.6531 79.7424C81.4627 82.3957 82.2327 85.3568 84.1531 86.7424C84.1531 86.7424 83.1531 88.2424 81.6531 88.2424C80.1531 88.2424 78.4511 89.1155 76.1531 83.7424C73.7168 79.2514 74.2486 76.7334 76.1531 72.2424C84.4965 65.1326 89.4916 63.5144 99.1531 66.2424C107.747 77.1836 108.282 83.4433 104.653 94.7424Z" fill="#B6FDFF"/>
<path d="M103.743 95.0002C95.9882 106.513 87.3314 111.482 63.9521 117.61C67.5416 121.938 70.6307 123.415 78.4641 124C92.2582 124.025 99.06 122.622 108.892 116.627C117.541 108.636 120.586 102.648 122 88.6105C121.956 73.3591 117.951 67.2856 108.892 57.6449C100.876 52.9086 95.7595 51.3483 84.5498 52.2383C74.2664 54.9468 69.5606 59.1477 62.0796 68.9498C60.6429 74.664 60.6374 78.3135 62.0796 85.6614C65.6633 93.5679 68.7792 97.5141 77.0597 103.356C87.3588 103.785 91.9007 102.403 96.253 95.0002C96.7688 89.1477 96.3079 85.9059 92.9761 80.2547C88.3902 77.0216 86.0167 76.8857 82.2091 80.2547C82.0308 82.863 82.7517 85.7739 84.5498 87.1359C84.5498 87.1359 83.6135 88.6105 82.2091 88.6105C80.8047 88.6105 79.2112 89.4688 77.0597 84.1868C74.7787 79.772 75.2766 77.2968 77.0597 72.8819C84.8713 65.8928 89.5479 64.3021 98.5936 66.9838C106.64 77.7393 107.14 83.8928 103.743 95.0002Z" fill="#20B8F6"/>
</svg>
